<svg width="390" height="844" viewBox="0 0 390 844" fill="none" xmlns="http://www.w3.org/2000/svg">
<g clip-path="url(#clip0_83_782)">
<rect width="390" height="844" fill="url(#paint0_linear_83_782)"/>
<ellipse cx="216.5" cy="837.5" rx="355.5" ry="105.5" fill="#13273F"/>
<g style="mix-blend-mode:multiply" opacity="0.3">
<path d="M32.5 848.5C107.5 844.5 275.5 825.8 347.5 783C411.848 744.749 428.005 696.194 428.452 670.244L428 662C428.337 664.391 428.506 667.158 428.452 670.244L441.5 908H-52L32.5 848.5Z" fill="#13273F"/>
<path d="M32.5 848.5C107.5 844.5 275.5 825.8 347.5 783C419.5 740.2 431.167 684.5 428 662L441.5 908H-52L32.5 848.5Z" stroke="#ABE1E1" stroke-width="2"/>
</g>
<g style="mix-blend-mode:overlay">
<path fill-rule="evenodd" clip-rule="evenodd" d="M119.54 206.915C119.55 206.723 119.554 206.531 119.554 206.337C119.554 198.419 111.845 192 102.336 192C92.826 192 85.117 198.419 85.117 206.337C85.117 206.468 85.1191 206.599 85.1233 206.729C83.5476 206.333 81.8766 206.121 80.1459 206.121C73.5808 206.121 67.8738 209.18 64.9692 213.68C64.2988 213.636 63.6175 213.613 62.9273 213.613C54.2514 213.613 46.9856 217.179 45.1026 221.964C40.8292 223.247 38 225.481 38 228.022C38 232.001 44.9349 235.227 53.4895 235.227C55.162 235.227 56.7725 235.103 58.2814 234.875C59.765 235.105 61.322 235.227 62.9273 235.227C66.6146 235.227 70.0471 234.583 72.92 233.475C75.1173 234.322 77.5653 234.794 80.1459 234.794C83.5721 234.794 86.7645 233.961 89.4468 232.525C91.8388 238.049 98.1903 241.999 105.65 241.999C112.045 241.999 117.625 239.096 120.595 234.786C121.725 234.981 122.894 235.083 124.093 235.083C126.707 235.083 129.184 234.598 131.403 233.73C133.762 234.405 136.538 234.794 139.51 234.794C148.065 234.794 155 231.569 155 227.59C155 223.894 149.016 220.848 141.308 220.433C141.108 212.66 133.477 206.409 124.093 206.409C122.517 206.409 120.991 206.585 119.54 206.915Z" fill="#ABE1E1"/>
</g>
<g style="mix-blend-mode:overlay">
<path fill-rule="evenodd" clip-rule="evenodd" d="M328.54 386.915C328.55 386.723 328.554 386.531 328.554 386.337C328.554 378.419 320.845 372 311.336 372C301.826 372 294.117 378.419 294.117 386.337C294.117 386.468 294.119 386.599 294.123 386.729C292.548 386.333 290.877 386.121 289.146 386.121C282.581 386.121 276.874 389.18 273.969 393.68C273.299 393.636 272.618 393.613 271.927 393.613C263.251 393.613 255.986 397.179 254.103 401.964C249.829 403.247 247 405.481 247 408.022C247 412.001 253.935 415.227 262.49 415.227C264.162 415.227 265.773 415.103 267.281 414.875C268.765 415.105 270.322 415.227 271.927 415.227C275.615 415.227 279.047 414.583 281.92 413.475C284.117 414.322 286.565 414.794 289.146 414.794C292.572 414.794 295.764 413.961 298.447 412.525C300.839 418.049 307.19 421.999 314.65 421.999C321.045 421.999 326.625 419.096 329.595 414.786C330.725 414.981 331.894 415.083 333.093 415.083C335.707 415.083 338.184 414.598 340.403 413.73C342.762 414.405 345.538 414.794 348.51 414.794C357.065 414.794 364 411.569 364 407.59C364 403.894 358.016 400.848 350.308 400.433C350.108 392.66 342.477 386.409 333.093 386.409C331.517 386.409 329.991 386.585 328.54 386.915Z" fill="#ABE1E1"/>
</g>
<path d="M74.9538 739.04C77.2293 737.232 80.4887 739.392 79.7104 742.192L77.027 751.847C76.679 753.099 77.1769 754.433 78.2602 755.151L86.6128 760.686C89.0353 762.291 87.9882 766.059 85.0847 766.184L75.0737 766.615C73.7752 766.671 72.6604 767.557 72.3124 768.809L69.629 778.463C68.8507 781.263 64.9441 781.432 63.9279 778.709L60.4242 769.321C59.9697 768.104 58.7829 767.317 57.4844 767.373L47.4734 767.804C44.5699 767.929 43.2026 764.266 45.478 762.458L53.3236 756.225C54.3412 755.416 54.7225 754.045 54.2681 752.827L50.7643 743.439C49.7481 740.717 52.8097 738.284 55.2322 739.89L63.5848 745.425C64.6682 746.143 66.0906 746.082 67.1082 745.273L74.9538 739.04Z" fill="#48D7E0"/>
<path d="M314.593 126.87C315.193 125.022 317.807 125.022 318.407 126.87V126.87C318.676 127.696 319.446 128.255 320.314 128.255V128.255C322.257 128.255 323.065 130.741 321.493 131.883V131.883C320.79 132.394 320.496 133.299 320.765 134.125V134.125C321.365 135.973 319.25 137.509 317.679 136.367V136.367C316.976 135.856 316.024 135.856 315.321 136.367V136.367C313.75 137.509 311.635 135.973 312.235 134.125V134.125C312.504 133.299 312.21 132.394 311.507 131.883V131.883C309.935 130.741 310.743 128.255 312.686 128.255V128.255C313.554 128.255 314.324 127.696 314.593 126.87V126.87Z" fill="#ABE1E1" fill-opacity="0.5"/>
<path d="M258.593 221.87C259.193 220.022 261.807 220.022 262.407 221.87V221.87C262.676 222.696 263.446 223.255 264.314 223.255V223.255C266.257 223.255 267.065 225.741 265.493 226.883V226.883C264.79 227.394 264.496 228.299 264.765 229.125V229.125C265.365 230.973 263.25 232.509 261.679 231.367V231.367C260.976 230.856 260.024 230.856 259.321 231.367V231.367C257.75 232.509 255.635 230.973 256.235 229.125V229.125C256.504 228.299 256.21 227.394 255.507 226.883V226.883C253.935 225.741 254.743 223.255 256.686 223.255V223.255C257.554 223.255 258.324 222.696 258.593 221.87V221.87Z" fill="#ABE1E1" fill-opacity="0.5"/>
<path d="M97.5928 196.87C98.1931 195.022 100.807 195.022 101.407 196.87V196.87C101.676 197.696 102.446 198.255 103.314 198.255V198.255C105.257 198.255 106.065 200.741 104.493 201.883V201.883C103.79 202.394 103.496 203.299 103.765 204.125V204.125C104.365 205.973 102.25 207.509 100.679 206.367V206.367C99.9759 205.856 99.0241 205.856 98.3213 206.367V206.367C96.7497 207.509 94.6351 205.973 95.2354 204.125V204.125C95.5039 203.299 95.2098 202.394 94.507 201.883V201.883C92.9354 200.741 93.7431 198.255 95.6857 198.255V198.255C96.5544 198.255 97.3244 197.696 97.5928 196.87V196.87Z" fill="#ABE1E1" fill-opacity="0.5"/>
<path d="M344.593 70.8697C345.193 69.0222 347.807 69.0222 348.407 70.8697V70.8697C348.676 71.6959 349.446 72.2553 350.314 72.2553V72.2553C352.257 72.2553 353.065 74.7411 351.493 75.883V75.883C350.79 76.3936 350.496 77.2988 350.765 78.125V78.125C351.365 79.9725 349.25 81.5089 347.679 80.367V80.367C346.976 79.8564 346.024 79.8564 345.321 80.367V80.367C343.75 81.5089 341.635 79.9725 342.235 78.125V78.125C342.504 77.2988 342.21 76.3936 341.507 75.883V75.883C339.935 74.7411 340.743 72.2553 342.686 72.2553V72.2553C343.554 72.2553 344.324 71.6959 344.593 70.8697V70.8697Z" fill="#ABE1E1" fill-opacity="0.5"/>
<path d="M60.5928 349.87C61.1931 348.022 63.8069 348.022 64.4072 349.87V349.87C64.6756 350.696 65.4456 351.255 66.3143 351.255V351.255C68.2569 351.255 69.0646 353.741 67.493 354.883V354.883C66.7902 355.394 66.4961 356.299 66.7646 357.125V357.125C67.3649 358.973 65.2503 360.509 63.6787 359.367V359.367C62.9759 358.856 62.0241 358.856 61.3213 359.367V359.367C59.7497 360.509 57.6351 358.973 58.2354 357.125V357.125C58.5039 356.299 58.2098 355.394 57.507 354.883V354.883C55.9354 353.741 56.7431 351.255 58.6857 351.255V351.255C59.5544 351.255 60.3244 350.696 60.5928 349.87V349.87Z" fill="#ABE1E1" fill-opacity="0.5"/>
<path d="M335.593 487.87C336.193 486.022 338.807 486.022 339.407 487.87V487.87C339.676 488.696 340.446 489.255 341.314 489.255V489.255C343.257 489.255 344.065 491.741 342.493 492.883V492.883C341.79 493.394 341.496 494.299 341.765 495.125V495.125C342.365 496.973 340.25 498.509 338.679 497.367V497.367C337.976 496.856 337.024 496.856 336.321 497.367V497.367C334.75 498.509 332.635 496.973 333.235 495.125V495.125C333.504 494.299 333.21 493.394 332.507 492.883V492.883C330.935 491.741 331.743 489.255 333.686 489.255V489.255C334.554 489.255 335.324 488.696 335.593 487.87V487.87Z" fill="#ABE1E1" fill-opacity="0.5"/>
<path d="M258.593 595.87C259.193 594.022 261.807 594.022 262.407 595.87V595.87C262.676 596.696 263.446 597.255 264.314 597.255V597.255C266.257 597.255 267.065 599.741 265.493 600.883V600.883C264.79 601.394 264.496 602.299 264.765 603.125V603.125C265.365 604.973 263.25 606.509 261.679 605.367V605.367C260.976 604.856 260.024 604.856 259.321 605.367V605.367C257.75 606.509 255.635 604.973 256.235 603.125V603.125C256.504 602.299 256.21 601.394 255.507 600.883V600.883C253.935 599.741 254.743 597.255 256.686 597.255V597.255C257.554 597.255 258.324 596.696 258.593 595.87V595.87Z" fill="#ABE1E1" fill-opacity="0.5"/>
<path d="M71.5928 512.87C72.1931 511.022 74.8069 511.022 75.4072 512.87V512.87C75.6756 513.696 76.4456 514.255 77.3143 514.255V514.255C79.2569 514.255 80.0646 516.741 78.493 517.883V517.883C77.7902 518.394 77.4961 519.299 77.7646 520.125V520.125C78.3649 521.973 76.2503 523.509 74.6787 522.367V522.367C73.9759 521.856 73.0241 521.856 72.3213 522.367V522.367C70.7497 523.509 68.6351 521.973 69.2354 520.125V520.125C69.5039 519.299 69.2098 518.394 68.507 517.883V517.883C66.9354 516.741 67.7431 514.255 69.6857 514.255V514.255C70.5544 514.255 71.3244 513.696 71.5928 512.87V512.87Z" fill="#ABE1E1" fill-opacity="0.5"/>
<path d="M301.826 792.177C304.063 790.399 307.267 792.523 306.502 795.275V795.275C306.16 796.506 306.649 797.818 307.714 798.523V798.523C310.096 800.102 309.066 803.805 306.212 803.928V803.928C304.936 803.983 303.84 804.854 303.498 806.085V806.085C302.732 808.837 298.892 809.003 297.893 806.326V806.326C297.446 805.129 296.28 804.356 295.003 804.411V804.411C292.149 804.534 290.805 800.933 293.042 799.156V799.156C294.042 798.361 294.417 797.012 293.97 795.815V795.815C292.971 793.139 295.981 790.748 298.362 792.326V792.326C299.427 793.032 300.826 792.971 301.826 792.177V792.177Z" fill="#48D7E0"/>
<path d="M114.826 792.177C117.063 790.399 120.267 792.523 119.502 795.275V795.275C119.16 796.506 119.649 797.818 120.714 798.523V798.523C123.096 800.102 122.066 803.805 119.212 803.928V803.928C117.936 803.983 116.84 804.854 116.498 806.085V806.085C115.732 808.837 111.892 809.003 110.893 806.326V806.326C110.446 805.129 109.28 804.356 108.003 804.411V804.411C105.149 804.534 103.805 800.933 106.042 799.156V799.156C107.042 798.361 107.417 797.012 106.97 795.815V795.815C105.971 793.139 108.981 790.748 111.362 792.326V792.326C112.427 793.032 113.826 792.971 114.826 792.177V792.177Z" fill="#48D7E0"/>
<g style="mix-blend-mode:multiply" opacity="0.3">
<path d="M448.5 907.5C523.5 903.5 691.5 884.8 763.5 842C827.848 803.749 844.005 755.194 844.452 729.244L844 721C844.337 723.391 844.506 726.158 844.452 729.244L857.5 967H364L448.5 907.5Z" fill="#13273F"/>
<path d="M448.5 907.5C523.5 903.5 691.5 884.8 763.5 842C835.5 799.2 847.167 743.5 844 721L857.5 967H364L448.5 907.5Z" stroke="#ABE1E1" stroke-width="2"/>
</g>
<path fill-rule="evenodd" clip-rule="evenodd" d="M222.231 118.937C220.04 120.228 217.486 120.969 214.759 120.969C206.62 120.969 200.022 114.371 200.022 106.233C200.022 100.427 203.38 95.4052 208.259 93.0034C208.145 93.0011 208.031 93 207.917 93C198.574 93 191 100.574 191 109.917C191 119.26 198.574 126.834 207.917 126.834C213.944 126.834 219.234 123.682 222.231 118.937Z" fill="white"/>
</g>
<defs>
<linearGradient id="paint0_linear_83_782" x1="195" y1="0" x2="195" y2="844" gradientUnits="userSpaceOnUse">
<stop stop-color="#102945"/>
<stop offset="1" stop-color="#105268"/>
</linearGradient>
<clipPath id="clip0_83_782">
<rect width="390" height="844" fill="white"/>
</clipPath>
</defs>
</svg>
