<svg width="390" height="844" viewBox="0 0 390 844" fill="none" xmlns="http://www.w3.org/2000/svg">
<g clip-path="url(#clip0_83_701)">
<rect width="390" height="844" fill="url(#paint0_linear_83_701)"/>
<path d="M301.593 104.87C302.193 103.022 304.807 103.022 305.407 104.87V104.87C305.676 105.696 306.446 106.255 307.314 106.255V106.255C309.257 106.255 310.065 108.741 308.493 109.883V109.883C307.79 110.394 307.496 111.299 307.765 112.125V112.125C308.365 113.973 306.25 115.509 304.679 114.367V114.367C303.976 113.856 303.024 113.856 302.321 114.367V114.367C300.75 115.509 298.635 113.973 299.235 112.125V112.125C299.504 111.299 299.21 110.394 298.507 109.883V109.883C296.935 108.741 297.743 106.255 299.686 106.255V106.255C300.554 106.255 301.324 105.696 301.593 104.87V104.87Z" fill="#ABE1E1" fill-opacity="0.5"/>
<path d="M245.593 199.87C246.193 198.022 248.807 198.022 249.407 199.87V199.87C249.676 200.696 250.446 201.255 251.314 201.255V201.255C253.257 201.255 254.065 203.741 252.493 204.883V204.883C251.79 205.394 251.496 206.299 251.765 207.125V207.125C252.365 208.973 250.25 210.509 248.679 209.367V209.367C247.976 208.856 247.024 208.856 246.321 209.367V209.367C244.75 210.509 242.635 208.973 243.235 207.125V207.125C243.504 206.299 243.21 205.394 242.507 204.883V204.883C240.935 203.741 241.743 201.255 243.686 201.255V201.255C244.554 201.255 245.324 200.696 245.593 199.87V199.87Z" fill="#ABE1E1" fill-opacity="0.5"/>
<path d="M84.5928 174.87C85.1931 173.022 87.8069 173.022 88.4072 174.87V174.87C88.6756 175.696 89.4456 176.255 90.3143 176.255V176.255C92.2569 176.255 93.0646 178.741 91.493 179.883V179.883C90.7902 180.394 90.4961 181.299 90.7646 182.125V182.125C91.3649 183.973 89.2503 185.509 87.6787 184.367V184.367C86.9759 183.856 86.0241 183.856 85.3213 184.367V184.367C83.7497 185.509 81.6351 183.973 82.2354 182.125V182.125C82.5039 181.299 82.2098 180.394 81.507 179.883V179.883C79.9354 178.741 80.7431 176.255 82.6857 176.255V176.255C83.5544 176.255 84.3244 175.696 84.5928 174.87V174.87Z" fill="#ABE1E1" fill-opacity="0.5"/>
<path d="M331.593 48.8697C332.193 47.0222 334.807 47.0222 335.407 48.8697V48.8697C335.676 49.6959 336.446 50.2553 337.314 50.2553V50.2553C339.257 50.2553 340.065 52.7411 338.493 53.883V53.883C337.79 54.3936 337.496 55.2988 337.765 56.125V56.125C338.365 57.9725 336.25 59.5089 334.679 58.367V58.367C333.976 57.8564 333.024 57.8564 332.321 58.367V58.367C330.75 59.5089 328.635 57.9725 329.235 56.125V56.125C329.504 55.2988 329.21 54.3936 328.507 53.883V53.883C326.935 52.7411 327.743 50.2553 329.686 50.2553V50.2553C330.554 50.2553 331.324 49.6959 331.593 48.8697V48.8697Z" fill="#ABE1E1" fill-opacity="0.5"/>
<path d="M47.5928 327.87C48.1931 326.022 50.8069 326.022 51.4072 327.87V327.87C51.6756 328.696 52.4456 329.255 53.3143 329.255V329.255C55.2569 329.255 56.0646 331.741 54.493 332.883V332.883C53.7902 333.394 53.4961 334.299 53.7646 335.125V335.125C54.3649 336.973 52.2503 338.509 50.6787 337.367V337.367C49.9759 336.856 49.0241 336.856 48.3213 337.367V337.367C46.7497 338.509 44.6351 336.973 45.2354 335.125V335.125C45.5039 334.299 45.2098 333.394 44.507 332.883V332.883C42.9354 331.741 43.7431 329.255 45.6857 329.255V329.255C46.5544 329.255 47.3244 328.696 47.5928 327.87V327.87Z" fill="#ABE1E1" fill-opacity="0.5"/>
<path d="M322.593 465.87C323.193 464.022 325.807 464.022 326.407 465.87V465.87C326.676 466.696 327.446 467.255 328.314 467.255V467.255C330.257 467.255 331.065 469.741 329.493 470.883V470.883C328.79 471.394 328.496 472.299 328.765 473.125V473.125C329.365 474.973 327.25 476.509 325.679 475.367V475.367C324.976 474.856 324.024 474.856 323.321 475.367V475.367C321.75 476.509 319.635 474.973 320.235 473.125V473.125C320.504 472.299 320.21 471.394 319.507 470.883V470.883C317.935 469.741 318.743 467.255 320.686 467.255V467.255C321.554 467.255 322.324 466.696 322.593 465.87V465.87Z" fill="#ABE1E1" fill-opacity="0.5"/>
<path d="M245.593 573.87C246.193 572.022 248.807 572.022 249.407 573.87V573.87C249.676 574.696 250.446 575.255 251.314 575.255V575.255C253.257 575.255 254.065 577.741 252.493 578.883V578.883C251.79 579.394 251.496 580.299 251.765 581.125V581.125C252.365 582.973 250.25 584.509 248.679 583.367V583.367C247.976 582.856 247.024 582.856 246.321 583.367V583.367C244.75 584.509 242.635 582.973 243.235 581.125V581.125C243.504 580.299 243.21 579.394 242.507 578.883V578.883C240.935 577.741 241.743 575.255 243.686 575.255V575.255C244.554 575.255 245.324 574.696 245.593 573.87V573.87Z" fill="#ABE1E1" fill-opacity="0.5"/>
<path d="M58.5928 490.87C59.1931 489.022 61.8069 489.022 62.4072 490.87V490.87C62.6756 491.696 63.4456 492.255 64.3143 492.255V492.255C66.2569 492.255 67.0646 494.741 65.493 495.883V495.883C64.7902 496.394 64.4961 497.299 64.7646 498.125V498.125C65.3649 499.973 63.2503 501.509 61.6787 500.367V500.367C60.9759 499.856 60.0241 499.856 59.3213 500.367V500.367C57.7497 501.509 55.6351 499.973 56.2354 498.125V498.125C56.5039 497.299 56.2098 496.394 55.507 495.883V495.883C53.9354 494.741 54.7431 492.255 56.6857 492.255V492.255C57.5544 492.255 58.3244 491.696 58.5928 490.87V490.87Z" fill="#ABE1E1" fill-opacity="0.5"/>
<path d="M288.826 770.177C291.063 768.399 294.267 770.523 293.502 773.275V773.275C293.16 774.506 293.649 775.818 294.714 776.523V776.523C297.095 778.102 296.066 781.805 293.212 781.928V781.928C291.935 781.983 290.839 782.854 290.497 784.085V784.085C289.732 786.837 285.892 787.003 284.893 784.326V784.326C284.446 783.129 283.279 782.356 282.003 782.411V782.411C279.149 782.534 277.805 778.933 280.042 777.156V777.156C281.042 776.361 281.417 775.012 280.97 773.815V773.815C279.971 771.139 282.981 768.748 285.362 770.326V770.326C286.427 771.032 287.825 770.971 288.826 770.177V770.177Z" fill="#48D7E0"/>
<path d="M101.826 770.177C104.063 768.399 107.267 770.523 106.502 773.275V773.275C106.16 774.506 106.649 775.818 107.714 776.523V776.523C110.095 778.102 109.066 781.805 106.212 781.928V781.928C104.935 781.983 103.839 782.854 103.497 784.085V784.085C102.732 786.837 98.8919 787.003 97.8929 784.326V784.326C97.4462 783.129 96.2795 782.356 95.003 782.411V782.411C92.1488 782.534 90.8047 778.933 93.0415 777.156V777.156C94.0419 776.361 94.4167 775.012 93.9699 773.815V773.815C92.971 771.139 95.9807 768.748 98.3621 770.326V770.326C99.4271 771.032 100.825 770.971 101.826 770.177V770.177Z" fill="#48D7E0"/>
<g style="mix-blend-mode:overlay">
<path fill-rule="evenodd" clip-rule="evenodd" d="M359.754 170.199C359.76 170.067 359.764 169.935 359.764 169.803C359.764 164.389 354.492 160 347.99 160C341.488 160 336.217 164.389 336.217 169.803C336.217 169.893 336.218 169.982 336.221 170.071C335.144 169.801 334.001 169.655 332.818 169.655C328.329 169.655 324.427 171.747 322.44 174.824C321.982 174.794 321.516 174.778 321.044 174.778C315.112 174.778 310.144 177.216 308.856 180.488C305.935 181.365 304 182.893 304 184.631C304 187.351 308.742 189.557 314.591 189.557C315.735 189.557 316.836 189.472 317.868 189.316C318.882 189.473 319.947 189.557 321.044 189.557C323.566 189.557 325.913 189.116 327.877 188.359C329.379 188.938 331.053 189.261 332.818 189.261C335.16 189.261 337.343 188.691 339.177 187.709C340.813 191.487 345.156 194.187 350.256 194.187C354.629 194.187 358.445 192.202 360.475 189.256C361.248 189.388 362.047 189.458 362.867 189.458C364.654 189.458 366.348 189.127 367.866 188.533C369.478 188.995 371.377 189.261 373.409 189.261C379.258 189.261 384 187.056 384 184.335C384 181.808 379.908 179.725 374.638 179.442C374.501 174.126 369.284 169.852 362.867 169.852C361.789 169.852 360.746 169.973 359.754 170.199Z" fill="#ABE1E1"/>
</g>
<g style="mix-blend-mode:overlay">
<path fill-rule="evenodd" clip-rule="evenodd" d="M29.5404 690.915C29.5496 690.723 29.5542 690.531 29.5542 690.337C29.5542 682.419 21.8452 676 12.3356 676C2.82603 676 -4.883 682.419 -4.883 690.337C-4.883 690.468 -4.88089 690.599 -4.87669 690.729C-6.45243 690.333 -8.12343 690.121 -9.85406 690.121C-16.4192 690.121 -22.1262 693.18 -25.0308 697.68C-25.7012 697.636 -26.3825 697.613 -27.0727 697.613C-35.7486 697.613 -43.0144 701.179 -44.8974 705.964C-49.1708 707.247 -52 709.481 -52 712.022C-52 716.001 -45.0651 719.227 -36.5105 719.227C-34.838 719.227 -33.2275 719.103 -31.7186 718.875C-30.235 719.105 -28.678 719.227 -27.0727 719.227C-23.3854 719.227 -19.9529 718.583 -17.08 717.475C-14.8827 718.322 -12.4347 718.794 -9.85406 718.794C-6.42794 718.794 -3.23555 717.961 -0.553169 716.525C1.83883 722.049 8.19031 725.999 15.6496 725.999C22.0447 725.999 27.6255 723.096 30.5951 718.786C31.7245 718.981 32.8944 719.083 34.093 719.083C36.7067 719.083 39.1844 718.598 41.4034 717.73C43.7617 718.405 46.5383 718.794 49.5105 718.794C58.0651 718.794 65 715.569 65 711.59C65 707.894 59.0156 704.848 51.3076 704.433C51.1081 696.66 43.4772 690.409 34.093 690.409C32.517 690.409 30.9906 690.585 29.5404 690.915Z" fill="#ABE1E1"/>
</g>
<g style="mix-blend-mode:overlay">
<path fill-rule="evenodd" clip-rule="evenodd" d="M393.54 641.915C393.55 641.723 393.554 641.531 393.554 641.337C393.554 633.419 385.845 627 376.336 627C366.826 627 359.117 633.419 359.117 641.337C359.117 641.468 359.119 641.599 359.123 641.729C357.548 641.333 355.877 641.121 354.146 641.121C347.581 641.121 341.874 644.18 338.969 648.68C338.299 648.636 337.618 648.613 336.927 648.613C328.251 648.613 320.986 652.179 319.103 656.964C314.829 658.247 312 660.481 312 663.022C312 667.001 318.935 670.227 327.49 670.227C329.162 670.227 330.773 670.103 332.281 669.875C333.765 670.105 335.322 670.227 336.927 670.227C340.615 670.227 344.047 669.583 346.92 668.475C349.117 669.322 351.565 669.794 354.146 669.794C357.572 669.794 360.764 668.961 363.447 667.525C365.839 673.049 372.19 676.999 379.65 676.999C386.045 676.999 391.625 674.096 394.595 669.786C395.725 669.981 396.894 670.083 398.093 670.083C400.707 670.083 403.184 669.598 405.403 668.73C407.762 669.405 410.538 669.794 413.51 669.794C422.065 669.794 429 666.569 429 662.59C429 658.894 423.016 655.848 415.308 655.433C415.108 647.66 407.477 641.409 398.093 641.409C396.517 641.409 394.991 641.585 393.54 641.915Z" fill="#ABE1E1"/>
</g>
<g style="mix-blend-mode:overlay">
<path fill-rule="evenodd" clip-rule="evenodd" d="M25.7541 123.199C25.7604 123.067 25.7635 122.935 25.7635 122.803C25.7635 117.389 20.4924 113 13.9901 113C7.48784 113 2.21671 117.389 2.21671 122.803C2.21671 122.893 2.21815 122.982 2.22103 123.071C1.14361 122.801 0.00106812 122.655 -1.18225 122.655C-5.67122 122.655 -9.57342 124.747 -11.5595 127.824C-12.0179 127.794 -12.4837 127.778 -12.9557 127.778C-18.888 127.778 -23.856 130.216 -25.1435 133.488C-28.0655 134.365 -30 135.893 -30 137.631C-30 140.351 -25.2582 142.557 -19.4089 142.557C-18.2653 142.557 -17.1641 142.472 -16.1324 142.316C-15.118 142.473 -14.0533 142.557 -12.9557 142.557C-10.4345 142.557 -8.08745 142.116 -6.12309 141.359C-4.62063 141.938 -2.94677 142.261 -1.18225 142.261C1.16039 142.261 3.34322 141.691 5.17732 140.709C6.81288 144.487 11.1558 147.187 16.2562 147.187C20.6288 147.187 24.4447 145.202 26.4752 142.256C27.2475 142.388 28.0475 142.458 28.867 142.458C30.6542 142.458 32.3483 142.127 33.8656 141.533C35.4781 141.995 37.3766 142.261 39.4089 142.261C45.2582 142.261 50 140.056 50 137.335C50 134.808 45.9081 132.725 40.6377 132.442C40.5013 127.126 35.2836 122.852 28.867 122.852C27.7894 122.852 26.7457 122.973 25.7541 123.199Z" fill="#ABE1E1"/>
</g>
<ellipse cx="216.5" cy="837.5" rx="355.5" ry="105.5" fill="#13273F"/>
<g style="mix-blend-mode:multiply" opacity="0.3">
<path d="M32.5 848.5C107.5 844.5 275.5 825.8 347.5 783C411.848 744.749 428.005 696.194 428.452 670.244L428 662C428.337 664.391 428.506 667.158 428.452 670.244L441.5 908H-52L32.5 848.5Z" fill="#13273F"/>
<path d="M32.5 848.5C107.5 844.5 275.5 825.8 347.5 783C419.5 740.2 431.167 684.5 428 662L441.5 908H-52L32.5 848.5Z" stroke="#ABE1E1" stroke-width="2"/>
</g>
<g style="mix-blend-mode:overlay">
<path fill-rule="evenodd" clip-rule="evenodd" d="M241.231 51.9372C239.04 53.2285 236.486 53.9692 233.759 53.9692C225.62 53.9692 219.022 47.3715 219.022 39.2328C219.022 33.4269 222.38 28.4052 227.259 26.0034C227.145 26.0011 227.031 26 226.917 26C217.574 26 210 33.5739 210 42.9169C210 52.2598 217.574 59.8337 226.917 59.8337C232.944 59.8337 238.234 56.6821 241.231 51.9372Z" fill="white"/>
</g>
<g style="mix-blend-mode:overlay">
<path fill-rule="evenodd" clip-rule="evenodd" d="M375.372 -1.90826C375.384 -2.15388 375.39 -2.40075 375.39 -2.64877C375.39 -12.7839 365.522 -21 353.35 -21C341.178 -21 331.31 -12.7839 331.31 -2.64877C331.31 -2.48099 331.313 -2.31374 331.318 -2.14705C329.301 -2.6533 327.162 -2.92541 324.947 -2.92541C316.544 -2.92541 309.239 0.990494 305.521 6.75029C304.663 6.69403 303.791 6.66515 302.907 6.66515C291.802 6.66515 282.502 11.2292 280.091 17.3544C274.621 18.996 271 21.8556 271 25.1086C271 30.2017 279.877 34.3304 290.827 34.3304C292.967 34.3304 295.029 34.1726 296.96 33.8806C298.859 34.1741 300.852 34.3303 302.907 34.3303C307.627 34.3303 312.021 33.506 315.698 32.0877C318.51 33.172 321.644 33.7771 324.947 33.7771C329.333 33.7771 333.419 32.7106 336.852 30.8721C339.914 37.9435 348.044 42.9987 357.592 42.9987C365.778 42.9987 372.921 39.2831 376.722 33.767C378.168 34.0154 379.665 34.1459 381.2 34.1459C384.545 34.1459 387.717 33.5252 390.557 32.4146C393.576 33.2787 397.13 33.777 400.934 33.777C411.884 33.777 420.761 29.6483 420.761 24.5553C420.761 19.8242 413.101 15.9252 403.234 15.395C402.979 5.44445 393.212 -2.55654 381.2 -2.55654C379.182 -2.55654 377.228 -2.33089 375.372 -1.90826Z" fill="#D6F8FA"/>
</g>
<path d="M150.593 123.87C151.193 122.022 153.807 122.022 154.407 123.87V123.87C154.676 124.696 155.446 125.255 156.314 125.255V125.255C158.257 125.255 159.065 127.741 157.493 128.883V128.883C156.79 129.394 156.496 130.299 156.765 131.125V131.125C157.365 132.973 155.25 134.509 153.679 133.367V133.367C152.976 132.856 152.024 132.856 151.321 133.367V133.367C149.75 134.509 147.635 132.973 148.235 131.125V131.125C148.504 130.299 148.21 129.394 147.507 128.883V128.883C145.935 127.741 146.743 125.255 148.686 125.255V125.255C149.554 125.255 150.324 124.696 150.593 123.87V123.87Z" fill="#ABE1E1" fill-opacity="0.5"/>
<path d="M272.593 69.8697C273.193 68.0222 275.807 68.0222 276.407 69.8697V69.8697C276.676 70.6959 277.446 71.2553 278.314 71.2553V71.2553C280.257 71.2553 281.065 73.7411 279.493 74.883V74.883C278.79 75.3936 278.496 76.2988 278.765 77.125V77.125C279.365 78.9725 277.25 80.5089 275.679 79.367V79.367C274.976 78.8564 274.024 78.8564 273.321 79.367V79.367C271.75 80.5089 269.635 78.9725 270.235 77.125V77.125C270.504 76.2988 270.21 75.3936 269.507 74.883V74.883C267.935 73.7411 268.743 71.2553 270.686 71.2553V71.2553C271.554 71.2553 272.324 70.6959 272.593 69.8697V69.8697Z" fill="#ABE1E1" fill-opacity="0.5"/>
<path d="M118.593 710.87C119.193 709.022 121.807 709.022 122.407 710.87V710.87C122.676 711.696 123.446 712.255 124.314 712.255V712.255C126.257 712.255 127.065 714.741 125.493 715.883V715.883C124.79 716.394 124.496 717.299 124.765 718.125V718.125C125.365 719.973 123.25 721.509 121.679 720.367V720.367C120.976 719.856 120.024 719.856 119.321 720.367V720.367C117.75 721.509 115.635 719.973 116.235 718.125V718.125C116.504 717.299 116.21 716.394 115.507 715.883V715.883C113.935 714.741 114.743 712.255 116.686 712.255V712.255C117.554 712.255 118.324 711.696 118.593 710.87V710.87Z" fill="#ABE1E1" fill-opacity="0.5"/>
<path d="M15.5928 318.87C16.1931 317.022 18.8069 317.022 19.4072 318.87V318.87C19.6756 319.696 20.4456 320.255 21.3143 320.255V320.255C23.2569 320.255 24.0646 322.741 22.493 323.883V323.883C21.7902 324.394 21.4961 325.299 21.7646 326.125V326.125C22.3649 327.973 20.2503 329.509 18.6787 328.367V328.367C17.9759 327.856 17.0241 327.856 16.3213 328.367V328.367C14.7497 329.509 12.6351 327.973 13.2354 326.125V326.125C13.5039 325.299 13.2098 324.394 12.507 323.883V323.883C10.9354 322.741 11.7431 320.255 13.6857 320.255V320.255C14.5544 320.255 15.3244 319.696 15.5928 318.87V318.87Z" fill="#ABE1E1" fill-opacity="0.5"/>
<path d="M367.593 490.87C368.193 489.022 370.807 489.022 371.407 490.87V490.87C371.676 491.696 372.446 492.255 373.314 492.255V492.255C375.257 492.255 376.065 494.741 374.493 495.883V495.883C373.79 496.394 373.496 497.299 373.765 498.125V498.125C374.365 499.973 372.25 501.509 370.679 500.367V500.367C369.976 499.856 369.024 499.856 368.321 500.367V500.367C366.75 501.509 364.635 499.973 365.235 498.125V498.125C365.504 497.299 365.21 496.394 364.507 495.883V495.883C362.935 494.741 363.743 492.255 365.686 492.255V492.255C366.554 492.255 367.324 491.696 367.593 490.87V490.87Z" fill="#ABE1E1" fill-opacity="0.5"/>
<path d="M26.5928 481.87C27.1931 480.022 29.8069 480.022 30.4072 481.87V481.87C30.6756 482.696 31.4456 483.255 32.3143 483.255V483.255C34.2569 483.255 35.0646 485.741 33.493 486.883V486.883C32.7902 487.394 32.4961 488.299 32.7646 489.125V489.125C33.3649 490.973 31.2503 492.509 29.6787 491.367V491.367C28.9759 490.856 28.0241 490.856 27.3213 491.367V491.367C25.7497 492.509 23.6351 490.973 24.2354 489.125V489.125C24.5039 488.299 24.2098 487.394 23.507 486.883V486.883C21.9354 485.741 22.7431 483.255 24.6857 483.255V483.255C25.5544 483.255 26.3244 482.696 26.5928 481.87V481.87Z" fill="#ABE1E1" fill-opacity="0.5"/>
<path d="M320.567 735.653C322.843 733.845 326.102 736.006 325.324 738.806L322.64 748.46C322.292 749.712 322.79 751.046 323.874 751.764L332.226 757.299C334.649 758.905 333.601 762.672 330.698 762.797L320.687 763.229C319.388 763.285 318.274 764.17 317.926 765.422L315.242 775.077C314.464 777.877 310.557 778.045 309.541 775.322L306.037 765.935C305.583 764.717 304.396 763.93 303.098 763.986L293.087 764.418C290.183 764.543 288.816 760.879 291.091 759.072L298.937 752.838C299.955 752.03 300.336 750.658 299.881 749.44L296.378 740.053C295.361 737.33 298.423 734.898 300.845 736.503L309.198 742.038C310.281 742.756 311.704 742.695 312.722 741.887L320.567 735.653Z" fill="#48D7E0"/>
<path d="M256.826 761.177C259.063 759.399 262.267 761.523 261.502 764.275V764.275C261.16 765.506 261.649 766.818 262.714 767.523V767.523C265.095 769.102 264.066 772.805 261.212 772.928V772.928C259.935 772.983 258.839 773.854 258.497 775.085V775.085C257.732 777.837 253.892 778.003 252.893 775.326V775.326C252.446 774.129 251.279 773.356 250.003 773.411V773.411C247.149 773.534 245.805 769.933 248.042 768.156V768.156C249.042 767.361 249.417 766.012 248.97 764.815V764.815C247.971 762.139 250.981 759.748 253.362 761.326V761.326C254.427 762.032 255.825 761.971 256.826 761.177V761.177Z" fill="#48D7E0"/>
<path d="M69.8258 761.177C72.0626 759.399 75.2668 761.523 74.5017 764.275V764.275C74.1596 765.506 74.649 766.818 75.714 767.523V767.523C78.0954 769.102 77.066 772.805 74.2118 772.928V772.928C72.9353 772.983 71.8394 773.854 71.4973 775.085V775.085C70.7322 777.837 66.8919 778.003 65.8929 775.326V775.326C65.4462 774.129 64.2795 773.356 63.003 773.411V773.411C60.1488 773.534 58.8047 769.933 61.0415 768.156V768.156C62.0419 767.361 62.4167 766.012 61.9699 764.815V764.815C60.971 762.139 63.9807 759.748 66.3621 761.326V761.326C67.4271 762.032 68.8254 761.971 69.8258 761.177V761.177Z" fill="#48D7E0"/>
</g>
<defs>
<linearGradient id="paint0_linear_83_701" x1="195" y1="0" x2="195" y2="844" gradientUnits="userSpaceOnUse">
<stop stop-color="#13273F"/>
<stop offset="1" stop-color="#105268"/>
</linearGradient>
<clipPath id="clip0_83_701">
<rect width="390" height="844" fill="white"/>
</clipPath>
</defs>
</svg>
