<svg width="390" height="844" viewBox="0 0 390 844" fill="none" xmlns="http://www.w3.org/2000/svg">
<g clip-path="url(#clip0_83_613)">
<rect width="390" height="844" fill="#13273F"/>
<g style="mix-blend-mode:overlay">
<path fill-rule="evenodd" clip-rule="evenodd" d="M231.231 68.9372C229.04 70.2285 226.486 70.9692 223.759 70.9692C215.62 70.9692 209.022 64.3715 209.022 56.2328C209.022 50.4269 212.38 45.4052 217.259 43.0034C217.145 43.0011 217.031 43 216.917 43C207.574 43 200 50.5739 200 59.9169C200 69.2598 207.574 76.8337 216.917 76.8337C222.944 76.8337 228.234 73.6821 231.231 68.9372Z" fill="white"/>
</g>
<g style="mix-blend-mode:overlay">
<path fill-rule="evenodd" clip-rule="evenodd" d="M375.372 -1.90826C375.384 -2.15388 375.39 -2.40075 375.39 -2.64877C375.39 -12.7839 365.522 -21 353.35 -21C341.178 -21 331.31 -12.7839 331.31 -2.64877C331.31 -2.48099 331.313 -2.31374 331.318 -2.14705C329.301 -2.6533 327.162 -2.92541 324.947 -2.92541C316.544 -2.92541 309.239 0.990494 305.521 6.75029C304.663 6.69403 303.791 6.66515 302.907 6.66515C291.802 6.66515 282.502 11.2292 280.091 17.3544C274.621 18.996 271 21.8556 271 25.1086C271 30.2017 279.877 34.3304 290.827 34.3304C292.967 34.3304 295.029 34.1726 296.96 33.8806C298.859 34.1741 300.852 34.3303 302.907 34.3303C307.627 34.3303 312.021 33.506 315.698 32.0877C318.51 33.172 321.644 33.7771 324.947 33.7771C329.333 33.7771 333.419 32.7106 336.852 30.8721C339.914 37.9435 348.044 42.9987 357.592 42.9987C365.778 42.9987 372.921 39.2831 376.722 33.767C378.168 34.0154 379.665 34.1459 381.2 34.1459C384.545 34.1459 387.717 33.5252 390.557 32.4146C393.576 33.2787 397.13 33.777 400.934 33.777C411.884 33.777 420.761 29.6483 420.761 24.5553C420.761 19.8242 413.101 15.9252 403.234 15.395C402.979 5.44445 393.212 -2.55654 381.2 -2.55654C379.182 -2.55654 377.228 -2.33089 375.372 -1.90826Z" fill="#D6F8FA"/>
</g>
<path fill-rule="evenodd" clip-rule="evenodd" d="M62.3722 147.092C62.384 146.846 62.3899 146.599 62.3899 146.351C62.3899 136.216 52.5223 128 40.3499 128C28.1776 128 18.31 136.216 18.31 146.351C18.31 146.519 18.3127 146.686 18.3181 146.853C16.3012 146.347 14.1623 146.075 11.9471 146.075C3.54372 146.075 -3.76125 149.99 -7.47927 155.75C-8.33734 155.694 -9.20939 155.665 -10.0929 155.665C-21.1982 155.665 -30.4985 160.229 -32.9086 166.354C-38.3786 167.996 -42 170.856 -42 174.109C-42 179.202 -33.1233 183.33 -22.1733 183.33C-20.0325 183.33 -17.971 183.173 -16.0396 182.881C-14.1406 183.174 -12.1476 183.33 -10.0929 183.33C-5.37315 183.33 -0.979473 182.506 2.69783 181.088C5.51045 182.172 8.64393 182.777 11.9471 182.777C16.3326 182.777 20.4188 181.711 23.8523 179.872C26.9141 186.943 35.044 191.999 44.592 191.999C52.7777 191.999 59.9211 188.283 63.7222 182.767C65.168 183.015 66.6655 183.146 68.1996 183.146C71.5452 183.146 74.7167 182.525 77.5571 181.415C80.5756 182.279 84.1298 182.777 87.9342 182.777C98.8842 182.777 107.761 178.648 107.761 173.555C107.761 168.824 100.101 164.925 90.2344 164.395C89.979 154.444 80.2115 146.443 68.1996 146.443C66.1824 146.443 64.2285 146.669 62.3722 147.092Z" fill="#105268"/>
</g>
<defs>
<clipPath id="clip0_83_613">
<rect width="390" height="844" fill="white"/>
</clipPath>
</defs>
</svg>
