<svg width="390" height="844" viewBox="0 0 390 844" fill="none" xmlns="http://www.w3.org/2000/svg">
<g clip-path="url(#clip0_83_539)">
<rect width="390" height="844" fill="url(#paint0_linear_83_539)"/>
<g style="mix-blend-mode:overlay">
<path d="M53.5928 316.87C54.1931 315.022 56.8069 315.022 57.4072 316.87V316.87C57.6756 317.696 58.4456 318.255 59.3143 318.255V318.255C61.2569 318.255 62.0646 320.741 60.493 321.883V321.883C59.7902 322.394 59.4961 323.299 59.7646 324.125V324.125C60.3649 325.973 58.2503 327.509 56.6787 326.367V326.367C55.9759 325.856 55.0241 325.856 54.3213 326.367V326.367C52.7497 327.509 50.6351 325.973 51.2354 324.125V324.125C51.5039 323.299 51.2098 322.394 50.507 321.883V321.883C48.9354 320.741 49.7431 318.255 51.6857 318.255V318.255C52.5544 318.255 53.3244 317.696 53.5928 316.87V316.87Z" fill="#ABE1E1" fill-opacity="0.5"/>
</g>
<g style="mix-blend-mode:overlay">
<path d="M290.593 502.87C291.193 501.022 293.807 501.022 294.407 502.87V502.87C294.676 503.696 295.446 504.255 296.314 504.255V504.255C298.257 504.255 299.065 506.741 297.493 507.883V507.883C296.79 508.394 296.496 509.299 296.765 510.125V510.125C297.365 511.973 295.25 513.509 293.679 512.367V512.367C292.976 511.856 292.024 511.856 291.321 512.367V512.367C289.75 513.509 287.635 511.973 288.235 510.125V510.125C288.504 509.299 288.21 508.394 287.507 507.883V507.883C285.935 506.741 286.743 504.255 288.686 504.255V504.255C289.554 504.255 290.324 503.696 290.593 502.87V502.87Z" fill="#ABE1E1" fill-opacity="0.5"/>
</g>
<g style="mix-blend-mode:overlay">
<path d="M340.593 124.87C341.193 123.022 343.807 123.022 344.407 124.87V124.87C344.676 125.696 345.446 126.255 346.314 126.255V126.255C348.257 126.255 349.065 128.741 347.493 129.883V129.883C346.79 130.394 346.496 131.299 346.765 132.125V132.125C347.365 133.973 345.25 135.509 343.679 134.367V134.367C342.976 133.856 342.024 133.856 341.321 134.367V134.367C339.75 135.509 337.635 133.973 338.235 132.125V132.125C338.504 131.299 338.21 130.394 337.507 129.883V129.883C335.935 128.741 336.743 126.255 338.686 126.255V126.255C339.554 126.255 340.324 125.696 340.593 124.87V124.87Z" fill="#ABE1E1" fill-opacity="0.5"/>
</g>
<g style="mix-blend-mode:overlay">
<path d="M35.5928 206.87C36.1931 205.022 38.8069 205.022 39.4072 206.87V206.87C39.6756 207.696 40.4456 208.255 41.3143 208.255V208.255C43.2569 208.255 44.0646 210.741 42.493 211.883V211.883C41.7902 212.394 41.4961 213.299 41.7646 214.125V214.125C42.3649 215.973 40.2503 217.509 38.6787 216.367V216.367C37.9759 215.856 37.0241 215.856 36.3213 216.367V216.367C34.7497 217.509 32.6351 215.973 33.2354 214.125V214.125C33.5039 213.299 33.2098 212.394 32.507 211.883V211.883C30.9354 210.741 31.7431 208.255 33.6857 208.255V208.255C34.5544 208.255 35.3244 207.696 35.5928 206.87V206.87Z" fill="#ABE1E1" fill-opacity="0.5"/>
</g>
<g style="mix-blend-mode:overlay">
<path d="M351.593 411.87C352.193 410.022 354.807 410.022 355.407 411.87V411.87C355.676 412.696 356.446 413.255 357.314 413.255V413.255C359.257 413.255 360.065 415.741 358.493 416.883V416.883C357.79 417.394 357.496 418.299 357.765 419.125V419.125C358.365 420.973 356.25 422.509 354.679 421.367V421.367C353.976 420.856 353.024 420.856 352.321 421.367V421.367C350.75 422.509 348.635 420.973 349.235 419.125V419.125C349.504 418.299 349.21 417.394 348.507 416.883V416.883C346.935 415.741 347.743 413.255 349.686 413.255V413.255C350.554 413.255 351.324 412.696 351.593 411.87V411.87Z" fill="#ABE1E1" fill-opacity="0.5"/>
</g>
<g style="mix-blend-mode:overlay" opacity="0.5">
<path fill-rule="evenodd" clip-rule="evenodd" d="M379.372 822.092C379.384 821.846 379.39 821.599 379.39 821.351C379.39 811.216 369.522 803 357.35 803C345.178 803 335.31 811.216 335.31 821.351C335.31 821.519 335.313 821.686 335.318 821.853C333.301 821.347 331.162 821.075 328.947 821.075C320.544 821.075 313.239 824.99 309.521 830.75C308.663 830.694 307.791 830.665 306.907 830.665C295.802 830.665 286.502 835.229 284.091 841.354C278.621 842.996 275 845.856 275 849.109C275 854.202 283.877 858.33 294.827 858.33C296.967 858.33 299.029 858.173 300.96 857.881C302.859 858.174 304.852 858.33 306.907 858.33C311.627 858.33 316.021 857.506 319.698 856.088C322.51 857.172 325.644 857.777 328.947 857.777C333.333 857.777 337.419 856.711 340.852 854.872C343.914 861.943 352.044 866.999 361.592 866.999C369.778 866.999 376.921 863.283 380.722 857.767C382.168 858.015 383.665 858.146 385.2 858.146C388.545 858.146 391.717 857.525 394.557 856.415C397.576 857.279 401.13 857.777 404.934 857.777C415.884 857.777 424.761 853.648 424.761 848.555C424.761 843.824 417.101 839.925 407.234 839.395C406.979 829.444 397.212 821.443 385.2 821.443C383.182 821.443 381.228 821.669 379.372 822.092Z" fill="#ABE1E1"/>
</g>
<g style="mix-blend-mode:overlay" opacity="0.5">
<path fill-rule="evenodd" clip-rule="evenodd" d="M37.3722 665.092C37.384 664.846 37.3899 664.599 37.3899 664.351C37.3899 654.216 27.5223 646 15.3499 646C3.17762 646 -6.68999 654.216 -6.68999 664.351C-6.68999 664.519 -6.68728 664.686 -6.68191 664.853C-8.69884 664.347 -10.8377 664.075 -13.0529 664.075C-21.4563 664.075 -28.7612 667.99 -32.4793 673.75C-33.3373 673.694 -34.2094 673.665 -35.0929 673.665C-46.1982 673.665 -55.4985 678.229 -57.9086 684.354C-63.3786 685.996 -67 688.856 -67 692.109C-67 697.202 -58.1233 701.33 -47.1733 701.33C-45.0325 701.33 -42.971 701.173 -41.0396 700.881C-39.1406 701.174 -37.1476 701.33 -35.0929 701.33C-30.3731 701.33 -25.9795 700.506 -22.3022 699.088C-19.4896 700.172 -16.3561 700.777 -13.0529 700.777C-8.66743 700.777 -4.58116 699.711 -1.14771 697.872C1.91408 704.943 10.044 709.999 19.592 709.999C27.7777 709.999 34.9211 706.283 38.7222 700.767C40.168 701.015 41.6655 701.146 43.1996 701.146C46.5452 701.146 49.7167 700.525 52.5571 699.415C55.5756 700.279 59.1298 700.777 62.9342 700.777C73.8842 700.777 82.7609 696.648 82.7609 691.555C82.7609 686.824 75.1008 682.925 65.2344 682.395C64.979 672.444 55.2115 664.443 43.1996 664.443C41.1824 664.443 39.2285 664.669 37.3722 665.092Z" fill="#D6F8FA"/>
</g>
<g style="mix-blend-mode:overlay" opacity="0.5">
<path fill-rule="evenodd" clip-rule="evenodd" d="M110.603 640.159C110.608 640.054 110.611 639.948 110.611 639.842C110.611 635.511 106.394 632 101.192 632C95.9903 632 91.7734 635.511 91.7734 639.842C91.7734 639.914 91.7745 639.986 91.7768 640.057C90.9149 639.84 90.0009 639.724 89.0542 639.724C85.463 639.724 82.3413 641.398 80.7524 643.859C80.3857 643.835 80.013 643.823 79.6355 643.823C74.8896 643.823 70.9152 645.773 69.8852 648.391C67.5476 649.092 66 650.314 66 651.704C66 653.881 69.7934 655.645 74.4729 655.645C75.3877 655.645 76.2687 655.578 77.0941 655.453C77.9056 655.579 78.7573 655.645 79.6355 655.645C81.6524 655.645 83.5301 655.293 85.1015 654.687C86.3035 655.15 87.6426 655.409 89.0542 655.409C90.9283 655.409 92.6746 654.953 94.1419 654.167C95.4503 657.189 98.9246 659.35 103.005 659.35C106.503 659.35 109.556 657.762 111.18 655.405C111.798 655.511 112.438 655.566 113.094 655.566C114.523 655.566 115.879 655.301 117.092 654.827C118.382 655.196 119.901 655.409 121.527 655.409C126.207 655.409 130 653.644 130 651.468C130 649.446 126.726 647.78 122.51 647.553C122.401 643.301 118.227 639.882 113.094 639.882C112.232 639.882 111.397 639.978 110.603 640.159Z" fill="#D6F8FA"/>
</g>
<g style="mix-blend-mode:overlay" opacity="0.5">
<path fill-rule="evenodd" clip-rule="evenodd" d="M354.153 758.296C350.074 760.701 345.318 762.08 340.24 762.08C325.085 762.08 312.8 749.795 312.8 734.64C312.8 723.829 319.052 714.479 328.138 710.006C327.926 710.002 327.713 710 327.5 710C310.103 710 296 724.103 296 741.5C296 758.897 310.103 773 327.5 773C338.722 773 348.574 767.132 354.153 758.296Z" fill="white"/>
</g>
</g>
<defs>
<linearGradient id="paint0_linear_83_539" x1="195" y1="0" x2="195" y2="844" gradientUnits="userSpaceOnUse">
<stop stop-color="#105268"/>
<stop offset="1" stop-color="#13273F"/>
</linearGradient>
<clipPath id="clip0_83_539">
<rect width="390" height="844" fill="white"/>
</clipPath>
</defs>
</svg>
